<?xml version="1.0" encoding="utf-8"?>
<!-- Generator: Adobe Illustrator 17.1.0, SVG Export Plug-In . SVG Version: 6.00 Build 0)  -->
<!DOCTYPE svg PUBLIC "-//W3C//DTD SVG 1.1//EN" "http://www.w3.org/Graphics/SVG/1.1/DTD/svg11.dtd">
<svg version="1.1" id="Lag_1" xmlns="http://www.w3.org/2000/svg" xmlns:xlink="http://www.w3.org/1999/xlink" x="0px" y="0px"
	 width="408.8px" height="277.7px" viewBox="0 0 408.8 277.7" enable-background="new 0 0 408.8 277.7" xml:space="preserve">
<g>
	<path fill="#FFFFFF" d="M57.3,179.7c0,0-9.7-4.8-16.3,5.2s-12.8,16.7-28.3,14c-15.5-2.7-17.1-21.3-1.8-35c6.4-5.7,3.2-8.3,1.9-11.9
		c0,0-12-22.1,10.5-28c4.1-1.1,8.1-2.4,14.7,3.1s10.5,7.3,10.3,22.3c0,2.2-2.6,3,6.3,5.9S315.9,221,315.9,221l11.4,0.4
		c0,0,7.8-15.8,16-18s18.3-1.7,25.3,4.8s1,21.7-4,26.8s-7.5,4.5-8.9,7.9s3.9,7.3,4.2,12.9s2,19-10,21.3s-23.2-1.7-26.9-15.2
		s-2.1-12.1-2.3-15s-4.8-2.3-4.8-2.3L57.3,179.7z"/>
	<path fill="#FFFFFF" d="M80.4,210.8c0,0-7.3-14.1-15.3-19.3S46.6,187.6,41,193s-10.1,15.4,0,26.8s8.4,8.3,8.4,8.3s-6.4,11.8-6,20.5
		s5.8,16.9,17.3,16.9s18-4.5,19.7-17s3.5-14,6.5-14.6s273.6-38.6,273.6-38.6s3.1-1.1,7.1,5.2s15.1,17.9,22.5,17.6
		c7.3-0.3,14.3-4.1,17.3-9.8c3-5.7,1.2-12.2-3.9-19.3c-5.1-7.1-6.8-9.5-6.6-11.8c0.2-2.3,6.8-9.4,6.7-18.9s-9.5-15.8-12-17.1
		s-10.2-1.4-16.5,4.3s-8.1,7.9-7.9,15.3s-0.1,10.1-7.8,11.6S80.4,210.8,80.4,210.8z"/>
</g>
<g>
	<g>
		<path fill="#FFFFFF" d="M135.9,90.2c-2.3-1.9-6.9-4.7-13.6-8.7c-6.8-3.9-13.4-8.5-19.9-13.8s-11.7-11-15.5-17.2
			c-3.8-6.2-4-12.6-0.5-19.1c4.3-8.3,9.8-15.1,16.4-20.4c6.7-5.3,12.9-8.1,18.8-8.5c5.8-0.4,10.5,2.2,14,7.8
			c3.5,5.6,4.2,15.1,2.2,28.5c-0.3,2.7-1.7,4.9-4,6.6c-2.3,1.7-4.5,2.8-6.7,3.2c-2.8,0.6-5.4-0.2-7.8-2.6c-2.4-2.4-3.4-4.9-3.1-7.7
			c3.9-16.9,3.2-24.2-2.1-21.7c-5.4,2.5-10.2,9.4-14.4,20.8c-2.3,6.2,0.2,11.8,7.6,16.8c7.4,5,15.5,10.2,24.3,15.6
			c8.8,5.4,16.2,11.4,22.3,17.9c6.1,6.6,6.7,14.5,1.8,23.9c-3.8,6.3-10.2,12-19,17c-8.9,5.1-17.7,8.3-26.5,9.6
			c-8.8,1.3-16.3,0.1-22.5-3.6s-8.5-11.3-7-22.8c2.1-10.4,4.1-17,5.8-19.9c1.7-2.9,5-7.2,9.9-12.8c4.5-3.1,8.9-3.8,13.2-2.3
			c4.4,1.5,4.6,4.8,0.7,9.7c-14,16.2-19.4,26.5-16.1,30.8c3.3,4.4,9.1,5.4,17.4,3.2c8.3-2.2,16.1-6.6,23.2-13
			C141.8,101.4,142.2,95.5,135.9,90.2z"/>
		<path fill="#FFFFFF" d="M162.7,32.9c-0.3,5.8-0.9,11.7-1.7,17.9c-0.8,6.1-1.3,12.1-1.7,17.8c10.7-5.1,17.7-12.9,21.2-23.2
			C184,35,186.5,22.7,188,8.5c0.7-3.4,3-5.7,7-6.9c4-1.1,6.9,1.5,8.7,7.9c1.2,3.6,0.8,11.1-1.4,22.4c-2.2,11.3-3.9,24-5.1,38.1
			c-1.5,17.4-1,31.8,1.4,43.3c2.4,11.5,5.5,20.5,9.4,27.1c3.8,6.6,6.5,11.7,8,15.4c1.5,3.7-1.1,4-7.7,1c-5-2.3-9.2-6.9-12.8-13.9
			c-3.6-7-6.5-14.8-8.8-23.5c-2.3-8.6-4-17.3-5-26c-1-8.7-1.4-15.9-1.3-21.4c-3,2.5-6.2,4.3-9.5,5.4c-3.4,1.1-7.2,2.2-11.4,3.4
			c-0.2,6.7,0,12.3,0.8,16.9c0.7,4.5,1.6,10.3,2.5,17.2c0,1.7-0.4,3.9-1.1,6.4c-0.7,2.6-1.7,4.4-3.1,5.4c-1.9,1.4-3.9,1.6-6,0.6
			c-2.1-0.9-3.3-2.4-3.5-4.4c-0.8-5.9-1.5-12.7-2-20.3c-0.5-7.6-0.8-14.3-1-20.1c-2.3-0.4-3.8-1.6-4.5-3.8c-0.8-2.2,0.6-4.3,4.1-6.3
			c0.1-4.8,0.3-10,0.6-15.8c0.4-5.7,0.7-11.2,1.1-16.3c2.2-23.4,6-34,11.3-32.1C164.1,10.2,165.4,18.4,162.7,32.9z"/>
	</g>
	<g>
		<path fill="#FFFFFF" d="M216.8,30.1c5.4-2.5,10.7-5.3,16-8.5c5.2-3.2,9.3-7.4,12.3-12.7c2-3.5,4.1-6.1,6.3-7.8
			c2.1-1.7,3.6-1.8,4.2-0.3c2,0.3,2.2,3.2,0.5,8.7c-1.2,5.2-2.4,12.9-3.8,23.1c-1.3,10.2-2.5,20.9-3.5,32.1c-1,11.2-1.7,21.8-2,31.9
			c-0.3,10.1-0.1,17.7,0.8,22.7c3.8,0.6,7.8,2.5,11.9,5.5c4.1,3,7.7,5.8,10.8,8.3c7.9,5.9,10.1,9.6,6.5,11c-3.6,1.4-6.7,1.1-9.5-1
			c-4.4-2.8-9.2-4.9-14.3-6.4c-5.1-1.5-9.6-2.4-13.4-2.7c-3.9-0.2-6.5,0.1-7.9,1c-1.4,0.9-3.7,2.3-6.9,4.1c-2,1.4-4.4,2.7-7.1,3.7
			c-2.7,1-5.6-0.3-8.6-3.9c-2.1-3.8-1.7-7.1,1.3-10c3-2.9,5.8-5,8.5-6.3c1.5-0.9,2.9-1.7,4.4-2.2s4.1-1.5,8.1-2.8
			c0.1,0.1,0-1-0.3-3.3c-0.3-2.2-0.3-3.4-0.2-3.4c-0.7-6-0.3-16.9,1.3-32.7c1.5-15.8,3.2-29.7,4.9-41.8c-4.6,4.9-9.1,8.5-13.3,11
			c-5,3.5-8.8,2.1-11.5-4.2C209.8,37,211.2,32.6,216.8,30.1z"/>
		<path fill="#FFFFFF" d="M304.9,139c-1.6-8.6-2.9-16.9-3.7-25c-0.8-8.1-1.1-16.6-0.9-25.4c-3.9-1.9-9.1-2.2-15.6-0.8
			c-6.5,1.4-11,1.7-13.6,0.8c-2.4,0.2-4.5-0.9-6.3-3.3c-1.8-2.4-2.1-5.7-0.8-9.8c2.2-6.9,4.4-16.2,6.6-28.1
			c2.2-11.9,2.8-21,1.8-27.3c-1-6.3-0.3-11.4,2.3-15.3c2.5-3.9,5.2-2.1,7.9,5.4c2.3,7.1,3.3,17.2,3.2,30.3
			c-0.1,13.1-1,23.8-2.5,32.2c2.5-0.5,5.3-0.4,8.2,0.2c2.9,0.6,6,0.9,9.3,0.9c0.5-8.3,0.9-17,1.3-26.2c0.4-9.2,1.3-17.8,2.8-25.7
			c2-11,5.5-16.6,10.7-16.8c5.2-0.2,6.5,3.9,4,12.2c-2.7,8.9-4.4,18.9-5.2,30c-0.7,11.1-0.8,21.2-0.3,30.4c3.7,2.1,7.6,4.6,11.5,7.7
			c3.9,3.1,4.3,6.6,1,10.7c-2.8,3.1-5.3,3.7-7.5,1.6c-2.2-2.1-3.9-3.2-5.1-3.4c-0.9,2.8-0.4,8.7,1.6,17.8c1.9,9.1,3.3,17,4.2,23.9
			c0.8,5.9-0.7,9.7-4.8,11.5C311,149,307.6,146.2,304.9,139z"/>
	</g>
</g>
</svg>
