<?xml version="1.0" encoding="utf-8"?>
<!-- Generator: Adobe Illustrator 17.1.0, SVG Export Plug-In . SVG Version: 6.00 Build 0)  -->
<!DOCTYPE svg PUBLIC "-//W3C//DTD SVG 1.1//EN" "http://www.w3.org/Graphics/SVG/1.1/DTD/svg11.dtd">
<svg version="1.1" id="Lag_1" xmlns="http://www.w3.org/2000/svg" xmlns:xlink="http://www.w3.org/1999/xlink" x="0px" y="0px"
	 width="28px" height="28px" viewBox="0 0 28 28" enable-background="new 0 0 28 28" xml:space="preserve">
<path opacity="0.67" fill="#A7504B" d="M22.5,13c0-0.4-0.1-0.6-0.2-1c-0.8-3.9-4.3-6.8-8.2-6.8c-4.6,0-8.4,3.8-8.4,8.4
	s3.8,8.4,8.4,8.4c1.3,0,2.6-0.3,3.8-0.9L17,19.4c-0.9,0.5-1.9,0.7-2.9,0.7c-3.5,0-6.4-2.9-6.4-6.4c0-3.5,2.9-6.4,6.4-6.4
	c3,0,5.6,2.2,6.3,5.2c0,0.2,0.1,0.3,0.1,0.5h-2.2l3.2,5.5l3.2-5.5H22.5z"/>
</svg>
